<svg id="kity_svg_6" xmlns="http://www.w3.org/2000/svg" xmlns:xlink="http://www.w3.org/1999/xlink" version="1.1" width="1045" height="1021" style="background: rgb(251, 251, 251); visibility: visible;" viewBox="0 0 1045 1021"><defs id="kity_defs_7"><linearGradient id="kity_linearGradient_17" x1="0" y1="0" x2="0" y2="1"><stop id="kity_stop_18" offset="0" stop-color="rgb(255, 255, 255)"></stop><stop id="kity_stop_19" offset="1" stop-color="rgb(204, 204, 204)"></stop></linearGradient><marker id="kity_marker_2" orient="auto" refX="6" refY="0" viewBox="-7 -7 14 14" markerWidth="7" markerHeight="7" markerUnits="userSpaceOnUse"><path id="kity_path_3" fill="rgb(123, 115, 191)" stroke="none" d="M6,0A6,6,0,1,1,-6,0A6,6,0,1,1,6,0"></path></marker></defs><g id="kity_g_8"><g id="minder1" text-rendering="optimize-speed"><g id="minder_connect_group1"><path id="kity_path_31" fill="none" stroke="rgb(123, 115, 191)" stroke-width="1" d="M543,516.5A169.5,483,0,0,1,712.5,33.5"></path><path id="kity_path_33" fill="none" stroke="rgb(123, 115, 191)" stroke-width="1" d="M543,516.5A169.5,367,0,0,1,712.5,149.5"></path><path id="kity_path_35" fill="none" stroke="rgb(123, 115, 191)" stroke-width="1" d="M812.5,149.5C827.5,149.5,827.5,111.5,842.5,111.5L946.5,111.5"></path><path id="kity_path_37" fill="none" stroke="rgb(123, 115, 191)" stroke-width="1" d="M812.5,149.5C827.5,149.5,827.5,163.5,842.5,163.5L945.5,163.5"></path><path id="kity_path_39" fill="none" stroke="rgb(123, 115, 191)" stroke-width="1" d="M812.5,149.5C827.5,149.5,827.5,215.5,842.5,215.5L945.5,215.5"></path><path id="kity_path_41" fill="none" stroke="rgb(123, 115, 191)" stroke-width="1" d="M543,516.5A284.5,472,0,0,1,258.5,988.5"></path><path id="kity_path_43" fill="none" stroke="rgb(123, 115, 191)" stroke-width="1" d="M543,516.5A169.5,107,0,0,1,712.5,409.5"></path><path id="kity_path_151" fill="none" stroke="rgb(123, 115, 191)" stroke-width="1" d="M543,516.5A168.5,145,0,0,0,711.5,661.5"></path><path id="kity_path_175" fill="none" stroke="rgb(123, 115, 191)" stroke-width="1" d="M543,516.5A153.5,328,0,0,0,696.5,844.5"></path><path id="kity_path_231" fill="none" stroke="rgb(123, 115, 191)" stroke-width="1" d="M543,516.5A169.5,332,0,0,0,373.5,184.5"></path><path id="kity_path_239" fill="none" stroke="rgb(123, 115, 191)" stroke-width="1" d="M543,516.5A169.5,140,0,0,0,373.5,376.5"></path><path id="kity_path_247" fill="none" stroke="rgb(123, 115, 191)" stroke-width="1" d="M241.5,184.5C226.5,184.5,226.5,120.5,211.5,120.5L131.5,120.5"></path><path id="kity_path_255" fill="none" stroke="rgb(123, 115, 191)" stroke-width="1" d="M241.5,184.5C226.5,184.5,226.5,172.5,211.5,172.5L107.5,172.5"></path><path id="kity_path_263" fill="none" stroke="rgb(123, 115, 191)" stroke-width="1" d="M241.5,184.5C226.5,184.5,226.5,224.5,211.5,224.5L113.5,224.5"></path><path id="kity_path_271" fill="none" stroke="rgb(123, 115, 191)" stroke-width="1" d="M241.5,184.5C226.5,184.5,226.5,276.5,211.5,276.5L156.5,276.5"></path><path id="kity_path_279" fill="none" stroke="rgb(123, 115, 191)" stroke-width="1" d="M255.5,376.5C240.5,376.5,240.5,338.5,225.5,338.5L68.5,338.5"></path><path id="kity_path_287" fill="none" stroke="rgb(123, 115, 191)" stroke-width="1" d="M255.5,376.5C240.5,376.5,240.5,390.5,225.5,390.5L145.5,390.5"></path><path id="kity_path_295" fill="none" stroke="rgb(123, 115, 191)" stroke-width="1" d="M255.5,376.5C240.5,376.5,240.5,442.5,225.5,442.5L145.5,442.5"></path><path id="kity_path_311" fill="none" stroke="rgb(123, 115, 191)" stroke-width="1" d="M543,516.5A169.5,26,0,0,1,373.5,542.5"></path><path id="kity_path_319" fill="none" stroke="rgb(123, 115, 191)" stroke-width="1" d="M238.5,542.5C223.5,542.5,223.5,504.5,208.5,504.5L113.5,504.5"></path><path id="kity_path_327" fill="none" stroke="rgb(123, 115, 191)" stroke-width="1" d="M238.5,542.5C223.5,542.5,223.5,556.5,208.5,556.5L113.5,556.5"></path><path id="kity_path_335" fill="none" stroke="rgb(123, 115, 191)" stroke-width="1" d="M238.5,542.5C223.5,542.5,223.5,608.5,208.5,608.5L112.5,608.5"></path><path id="kity_path_343" fill="none" stroke="rgb(123, 115, 191)" stroke-width="1" d="M543,516.5A169.5,192,0,0,1,373.5,708.5"></path><path id="kity_path_351" fill="none" stroke="rgb(123, 115, 191)" stroke-width="1" d="M275.5,708.5C260.5,708.5,260.5,670.5,245.5,670.5L141.5,670.5"></path><path id="kity_path_359" fill="none" stroke="rgb(123, 115, 191)" stroke-width="1" d="M275.5,708.5C260.5,708.5,260.5,722.5,245.5,722.5L130.5,722.5"></path><path id="kity_path_367" fill="none" stroke="rgb(123, 115, 191)" stroke-width="1" d="M275.5,708.5C260.5,708.5,260.5,774.5,245.5,774.5L129.5,774.5"></path><path id="kity_path_383" fill="none" stroke="rgb(123, 115, 191)" stroke-width="1" d="M543,516.5A169.5,332,0,0,1,373.5,848.5"></path><path id="kity_path_391" fill="none" stroke="rgb(123, 115, 191)" stroke-width="1" d="M273.5,848.5C258.5,848.5,258.5,836.5,243.5,836.5L164.5,836.5"></path><path id="kity_path_399" fill="none" stroke="rgb(123, 115, 191)" stroke-width="1" d="M273.5,848.5C258.5,848.5,258.5,888.5,243.5,888.5L20.5,888.5"></path><path id="kity_path_422" fill="none" stroke="rgb(123, 115, 191)" stroke-width="1" d="M783.5,409.5C798.5,409.5,798.5,241.5,813.5,241.5L893.5,241.5"></path><path id="kity_path_423" fill="none" stroke="rgb(123, 115, 191)" stroke-width="1" d="M783.5,409.5C798.5,409.5,798.5,293.5,813.5,293.5L869.5,293.5"></path><path id="kity_path_424" fill="none" stroke="rgb(123, 115, 191)" stroke-width="1" d="M783.5,409.5C798.5,409.5,798.5,345.5,813.5,345.5L869.5,345.5"></path><path id="kity_path_425" fill="none" stroke="rgb(123, 115, 191)" stroke-width="1" d="M783.5,409.5C798.5,409.5,798.5,397.5,813.5,397.5L933.5,397.5"></path><path id="kity_path_426" fill="none" stroke="rgb(123, 115, 191)" stroke-width="1" d="M783.5,409.5C798.5,409.5,798.5,449.5,813.5,449.5L932.5,449.5"></path><path id="kity_path_427" fill="none" stroke="rgb(123, 115, 191)" stroke-width="1" d="M783.5,409.5C798.5,409.5,798.5,501.5,813.5,501.5L939.5,501.5"></path><path id="kity_path_428" fill="none" stroke="rgb(123, 115, 191)" stroke-width="1" d="M783.5,409.5C798.5,409.5,798.5,553.5,813.5,553.5L951.5,553.5"></path><path id="kity_path_429" fill="none" stroke="rgb(123, 115, 191)" stroke-width="1" d="M783.5,409.5C798.5,409.5,798.5,605.5,813.5,605.5L932.5,605.5"></path><path id="kity_path_430" fill="none" stroke="rgb(123, 115, 191)" stroke-width="1" d="M829.5,661.5C844.5,661.5,844.5,649.5,859.5,649.5L961.5,649.5"></path><path id="kity_path_431" fill="none" stroke="rgb(123, 115, 191)" stroke-width="1" d="M829.5,661.5C844.5,661.5,844.5,701.5,859.5,701.5L925.5,701.5"></path><path id="kity_path_450" fill="none" stroke="rgb(123, 115, 191)" stroke-width="1" d="M815.5,844.5C830.5,844.5,830.5,728.5,845.5,728.5L905.5,728.5"></path><path id="kity_path_451" fill="none" stroke="rgb(123, 115, 191)" stroke-width="1" d="M815.5,844.5C830.5,844.5,830.5,780.5,845.5,780.5L947.5,780.5"></path><path id="kity_path_452" fill="none" stroke="rgb(123, 115, 191)" stroke-width="1" d="M815.5,844.5C830.5,844.5,830.5,832.5,845.5,832.5L995.5,832.5"></path><path id="kity_path_453" fill="none" stroke="rgb(123, 115, 191)" stroke-width="1" d="M815.5,844.5C830.5,844.5,830.5,884.5,845.5,884.5L924.5,884.5"></path><path id="kity_path_454" fill="none" stroke="rgb(123, 115, 191)" stroke-width="1" d="M815.5,844.5C830.5,844.5,830.5,936.5,845.5,936.5L1025.5,936.5"></path><path id="kity_path_455" fill="none" stroke="rgb(123, 115, 191)" stroke-width="1" d="M815.5,844.5C830.5,844.5,830.5,988.5,845.5,988.5L924.5,988.5"></path></g><g id="minder_node1"><path id="node_outline1" fill="rgb(123, 115, 191)" stroke="rgb(123, 115, 191)" d="M496.5,496.5h93a5,5,0,0,1,5,5v30a5,5,0,0,1,-5,5h-93a5,5,0,0,1,-5,-5v-30a5,5,0,0,1,5,-5z" stroke-width="3"></path><g id="node_text1" fill="white"><text id="kity_text_22" text-rendering="inherit" font-size="16" dy=".8em" y="506.09999990463257" x="515.5">MySQL</text></g></g><g id="kity_g_14" display="none"><path id="kity_path_15" fill="rgba(15, 0, 153, 0.5)" stroke="none" d="M714.5,473.5h69v20h-69z"></path><path id="kity_path_16" fill="none" stroke="rgb(13, 0, 128)" d="M714.5,493.5L783.5,493.5" stroke-width="1"></path></g><g id="minder_node2" opacity="1"><g id="node_expander1" style="cursor: pointer;" display="none"><path id="kity_path_96" fill="white" stroke="gray" d="M713.5,33.5A6,6,0,1,1,701.5,33.5A6,6,0,1,1,713.5,33.5"></path><path id="kity_path_97" fill="none" stroke="gray"></path></g><path id="node_outline2" fill="rgb(239, 238, 246)" stroke="rgb(123, 115, 191)" d="M717.5,20.5h110a3,3,0,0,1,3,3v20a3,3,0,0,1,-3,3h-110a3,3,0,0,1,-3,-3v-20a3,3,0,0,1,3,-3z" stroke-width="1"></path><g id="node_text2" fill="black"><text id="kity_text_57" text-rendering="inherit" font-size="14" dy=".8em" y="24.40000009536743" x="734.5">MySQL架构</text></g></g><g id="minder_node3"><g id="node_expander5" style="cursor: pointer;"><path id="kity_path_108" fill="white" stroke="gray" d="M713.5,149.5A6,6,0,1,1,701.5,149.5A6,6,0,1,1,713.5,149.5"></path><path id="kity_path_109" fill="none" stroke="gray" d="M703,149.5L712,149.5"></path></g><path id="node_outline6" fill="rgb(239, 238, 246)" stroke="rgb(123, 115, 191)" d="M717.5,136.5h92a3,3,0,0,1,3,3v20a3,3,0,0,1,-3,3h-92a3,3,0,0,1,-3,-3v-20a3,3,0,0,1,3,-3z" stroke-width="1"></path><g id="node_text6" fill="black"><text id="kity_text_65" text-rendering="inherit" font-size="14" dy=".8em" y="140.40000009536743" x="734.5">存储引擎</text></g></g><g id="minder_node4"><g id="node_expander2" style="cursor: pointer;" display="none"><path id="kity_path_99" fill="white" stroke="gray" d="M852.5,97.5A6,6,0,1,1,840.5,97.5A6,6,0,1,1,852.5,97.5"></path><path id="kity_path_100" fill="none" stroke="gray"></path></g><path id="node_outline3" fill="none" stroke="none" d="M857.5,86.5h84a5,5,0,0,1,5,5v12a5,5,0,0,1,-5,5h-84a5,5,0,0,1,-5,-5v-12a5,5,0,0,1,5,-5z"></path><g id="node_text3" fill="black"><text id="kity_text_59" text-rendering="inherit" font-size="12" dy=".8em" y="89.70000004768372" x="862.5">查看存储引擎</text></g></g><g id="minder_node5"><g id="node_expander3" style="cursor: pointer;" display="none"><path id="kity_path_102" fill="white" stroke="gray" d="M852.5,149.5A6,6,0,1,1,840.5,149.5A6,6,0,1,1,852.5,149.5"></path><path id="kity_path_103" fill="none" stroke="gray"></path></g><path id="node_outline4" fill="none" stroke="none" d="M857.5,138.5h83a5,5,0,0,1,5,5v12a5,5,0,0,1,-5,5h-83a5,5,0,0,1,-5,-5v-12a5,5,0,0,1,5,-5z"></path><g id="node_text4" fill="black"><text id="kity_text_61" text-rendering="inherit" font-size="12" dy=".8em" y="141.70000004768372" x="862.5">设置存储引擎</text></g></g><g id="minder_node6"><g id="node_expander4" style="cursor: pointer;" display="none"><path id="kity_path_105" fill="white" stroke="gray" d="M852.5,201.5A6,6,0,1,1,840.5,201.5A6,6,0,1,1,852.5,201.5"></path><path id="kity_path_106" fill="none" stroke="gray"></path></g><path id="node_outline5" fill="none" stroke="none" d="M857.5,190.5h83a5,5,0,0,1,5,5v12a5,5,0,0,1,-5,5h-83a5,5,0,0,1,-5,-5v-12a5,5,0,0,1,5,-5z"></path><g id="node_text5" fill="black"><text id="kity_text_63" text-rendering="inherit" font-size="12" dy=".8em" y="193.70000004768372" x="862.5">存储引擎对比</text></g></g><g id="minder_node7" opacity="1"><g id="node_expander6" style="cursor: pointer;" display="none"><path id="kity_path_111" fill="white" stroke="gray" d="M157.5,988.5A6,6,0,1,1,145.5,988.5A6,6,0,1,1,157.5,988.5"></path><path id="kity_path_112" fill="none" stroke="gray"></path></g><path id="node_outline7" fill="rgb(239, 238, 246)" stroke="rgb(123, 115, 191)" d="M161.5,975.5h92a3,3,0,0,1,3,3v20a3,3,0,0,1,-3,3h-92a3,3,0,0,1,-3,-3v-20a3,3,0,0,1,3,-3z" stroke-width="1"></path><g id="node_text7" fill="black"><text id="kity_text_67" text-rendering="inherit" font-size="14" dy=".8em" y="979.4000000953674" x="178.5">数据类型</text></g></g><g id="minder_node8" opacity="1"><g id="node_expander13" style="cursor: pointer;"><path id="kity_path_132" fill="white" stroke="gray" d="M713.5,409.5A6,6,0,1,1,701.5,409.5A6,6,0,1,1,713.5,409.5"></path><path id="kity_path_133" fill="none" stroke="gray" d="M703,409.5L712,409.5"></path></g><path id="node_outline14" fill="rgb(239, 238, 246)" stroke="rgb(123, 115, 191)" d="M717.5,396.5h63a3,3,0,0,1,3,3v20a3,3,0,0,1,-3,3h-63a3,3,0,0,1,-3,-3v-20a3,3,0,0,1,3,-3z" stroke-width="1"></path><g id="node_text14" fill="black"><text id="kity_text_81" text-rendering="inherit" font-size="14" dy=".8em" y="400.40000009536743" x="734.5">索引</text></g></g><g id="minder_node17" opacity="1"><g id="node_expander16" style="cursor: pointer;"><path id="kity_path_156" fill="white" stroke="gray" d="M712.5,661.5A6,6,0,1,1,700.5,661.5A6,6,0,1,1,712.5,661.5"></path><path id="kity_path_157" fill="none" stroke="gray" d="M702,661.5L711,661.5"></path></g><path id="node_outline17" fill="rgb(239, 238, 246)" stroke="rgb(123, 115, 191)" d="M716.5,648.5h110a3,3,0,0,1,3,3v20a3,3,0,0,1,-3,3h-110a3,3,0,0,1,-3,-3v-20a3,3,0,0,1,3,-3z" stroke-width="1"></path><g id="node_text17" fill="black"><text id="kity_text_153" text-rendering="inherit" font-size="14" dy=".8em" y="652.4000000953674" x="733.5">MySQL查询</text></g></g><g id="minder_node20" opacity="1"><g id="node_expander19" style="cursor: pointer;"><path id="kity_path_180" fill="white" stroke="gray" d="M697.5,844.5A6,6,0,1,1,685.5,844.5A6,6,0,1,1,697.5,844.5"></path><path id="kity_path_181" fill="none" stroke="gray" d="M687,844.5L696,844.5"></path></g><path id="node_outline20" fill="rgb(239, 238, 246)" stroke="rgb(123, 115, 191)" d="M701.5,831.5h111a3,3,0,0,1,3,3v20a3,3,0,0,1,-3,3h-111a3,3,0,0,1,-3,-3v-20a3,3,0,0,1,3,-3z" stroke-width="1"></path><g id="node_text20" fill="black"><text id="kity_text_177" text-rendering="inherit" font-size="14" dy=".8em" y="835.4000000953674" x="718.5">MySQL事务</text></g></g><g id="minder_node27"><g id="node_expander26" style="cursor: pointer;"><path id="kity_path_236" fill="white" stroke="gray" d="M384.5,184.5A6,6,0,1,1,372.5,184.5A6,6,0,1,1,384.5,184.5"></path><path id="kity_path_237" fill="none" stroke="gray" d="M374,184.5L383,184.5"></path></g><path id="node_outline27" fill="rgb(239, 238, 246)" stroke="rgb(123, 115, 191)" d="M244.5,171.5h124a3,3,0,0,1,3,3v20a3,3,0,0,1,-3,3h-124a3,3,0,0,1,-3,-3v-20a3,3,0,0,1,3,-3z" stroke-width="1"></path><g id="node_text27" fill="black"><text id="kity_text_233" text-rendering="inherit" font-size="14" dy=".8em" y="175.40000009536743" x="261.5">MySQL锁机制</text></g></g><g id="minder_node28"><g id="node_expander27" style="cursor: pointer;"><path id="kity_path_244" fill="white" stroke="gray" d="M384.5,376.5A6,6,0,1,1,372.5,376.5A6,6,0,1,1,384.5,376.5"></path><path id="kity_path_245" fill="none" stroke="gray" d="M374,376.5L383,376.5"></path></g><path id="node_outline28" fill="rgb(239, 238, 246)" stroke="rgb(123, 115, 191)" d="M258.5,363.5h110a3,3,0,0,1,3,3v20a3,3,0,0,1,-3,3h-110a3,3,0,0,1,-3,-3v-20a3,3,0,0,1,3,-3z" stroke-width="1"></path><g id="node_text28" fill="black"><text id="kity_text_241" text-rendering="inherit" font-size="14" dy=".8em" y="367.40000009536743" x="275.5">MySQL调优</text></g></g><g id="minder_node29"><g id="node_expander28" style="cursor: pointer;" display="none"><path id="kity_path_252" fill="white" stroke="gray" d="M213.5,106.5A6,6,0,1,1,201.5,106.5A6,6,0,1,1,213.5,106.5"></path><path id="kity_path_253" fill="none" stroke="gray"></path></g><path id="node_outline29" fill="none" stroke="none" d="M136.5,95.5h60a5,5,0,0,1,5,5v12a5,5,0,0,1,-5,5h-60a5,5,0,0,1,-5,-5v-12a5,5,0,0,1,5,-5z" stroke-width="3"></path><g id="node_text29" fill="black"><text id="kity_text_249" text-rendering="inherit" font-size="12" dy=".8em" y="98.70000004768372" x="141.5">锁的分类</text></g></g><g id="minder_node30"><g id="node_expander29" style="cursor: pointer;" display="none"><path id="kity_path_260" fill="white" stroke="gray" d="M213.5,158.5A6,6,0,1,1,201.5,158.5A6,6,0,1,1,213.5,158.5"></path><path id="kity_path_261" fill="none" stroke="gray"></path></g><path id="node_outline30" fill="none" stroke="none" d="M112.5,147.5h84a5,5,0,0,1,5,5v12a5,5,0,0,1,-5,5h-84a5,5,0,0,1,-5,-5v-12a5,5,0,0,1,5,-5z" stroke-width="3"></path><g id="node_text30" fill="black"><text id="kity_text_257" text-rendering="inherit" font-size="12" dy=".8em" y="150.70000004768372" x="117.5">MyISAM表锁</text></g></g><g id="minder_node31"><g id="node_expander30" style="cursor: pointer;" display="none"><path id="kity_path_268" fill="white" stroke="gray" d="M213.5,210.5A6,6,0,1,1,201.5,210.5A6,6,0,1,1,213.5,210.5"></path><path id="kity_path_269" fill="none" stroke="gray"></path></g><path id="node_outline31" fill="none" stroke="none" d="M118.5,199.5h78a5,5,0,0,1,5,5v12a5,5,0,0,1,-5,5h-78a5,5,0,0,1,-5,-5v-12a5,5,0,0,1,5,-5z" stroke-width="3"></path><g id="node_text31" fill="black"><text id="kity_text_265" text-rendering="inherit" font-size="12" dy=".8em" y="202.70000004768372" x="123.5">InnoDB行锁</text></g></g><g id="minder_node32"><g id="node_expander31" style="cursor: pointer;" display="none"><path id="kity_path_276" fill="white" stroke="gray" d="M213.5,262.5A6,6,0,1,1,201.5,262.5A6,6,0,1,1,213.5,262.5"></path><path id="kity_path_277" fill="none" stroke="gray"></path></g><path id="node_outline32" fill="none" stroke="none" d="M161.5,251.5h35a5,5,0,0,1,5,5v12a5,5,0,0,1,-5,5h-35a5,5,0,0,1,-5,-5v-12a5,5,0,0,1,5,-5z" stroke-width="3"></path><g id="node_text32" fill="black"><text id="kity_text_273" text-rendering="inherit" font-size="12" dy=".8em" y="254.70000004768372" x="166.5">死锁</text></g></g><g id="minder_node33"><g id="node_expander32" style="cursor: pointer;" display="none"><path id="kity_path_284" fill="white" stroke="gray" d="M227.5,324.5A6,6,0,1,1,215.5,324.5A6,6,0,1,1,227.5,324.5"></path><path id="kity_path_285" fill="none" stroke="gray"></path></g><path id="node_outline33" fill="none" stroke="none" d="M73.5,313.5h137a5,5,0,0,1,5,5v12a5,5,0,0,1,-5,5h-137a5,5,0,0,1,-5,-5v-12a5,5,0,0,1,5,-5z" stroke-width="3"></path><g id="node_text33" fill="black"><text id="kity_text_281" text-rendering="inherit" font-size="12" dy=".8em" y="316.7000000476837" x="78.5">影响MySQL的性能因素</text></g></g><g id="minder_node34"><g id="node_expander33" style="cursor: pointer;" display="none"><path id="kity_path_292" fill="white" stroke="gray" d="M227.5,376.5A6,6,0,1,1,215.5,376.5A6,6,0,1,1,227.5,376.5"></path><path id="kity_path_293" fill="none" stroke="gray"></path></g><path id="node_outline34" fill="none" stroke="none" d="M150.5,365.5h60a5,5,0,0,1,5,5v12a5,5,0,0,1,-5,5h-60a5,5,0,0,1,-5,-5v-12a5,5,0,0,1,5,-5z" stroke-width="3"></path><g id="node_text34" fill="black"><text id="kity_text_289" text-rendering="inherit" font-size="12" dy=".8em" y="368.7000000476837" x="155.5">性能分析</text></g></g><g id="minder_node35"><g id="node_expander34" style="cursor: pointer;" display="none"><path id="kity_path_300" fill="white" stroke="gray" d="M227.5,428.5A6,6,0,1,1,215.5,428.5A6,6,0,1,1,227.5,428.5"></path><path id="kity_path_301" fill="none" stroke="gray"></path></g><path id="node_outline35" fill="none" stroke="none" d="M150.5,417.5h60a5,5,0,0,1,5,5v12a5,5,0,0,1,-5,5h-60a5,5,0,0,1,-5,-5v-12a5,5,0,0,1,5,-5z" stroke-width="3"></path><g id="node_text35" fill="black"><text id="kity_text_297" text-rendering="inherit" font-size="12" dy=".8em" y="420.7000000476837" x="155.5">性能优化</text></g></g><g id="minder_node37"><g id="node_expander36" style="cursor: pointer;"><path id="kity_path_316" fill="white" stroke="gray" d="M384.5,542.5A6,6,0,1,1,372.5,542.5A6,6,0,1,1,384.5,542.5"></path><path id="kity_path_317" fill="none" stroke="gray" d="M374,542.5L383,542.5"></path></g><path id="node_outline37" fill="rgb(239, 238, 246)" stroke="rgb(123, 115, 191)" d="M241.5,529.5h127a3,3,0,0,1,3,3v20a3,3,0,0,1,-3,3h-127a3,3,0,0,1,-3,-3v-20a3,3,0,0,1,3,-3z" stroke-width="1"></path><g id="node_text37" fill="black"><text id="kity_text_313" text-rendering="inherit" font-size="14" dy=".8em" y="533.4000000953674" x="258.5">分区,分库,分表</text></g></g><g id="minder_node38"><g id="node_expander37" style="cursor: pointer;" display="none"><path id="kity_path_324" fill="white" stroke="gray" d="M210.5,490.5A6,6,0,1,1,198.5,490.5A6,6,0,1,1,210.5,490.5"></path><path id="kity_path_325" fill="none" stroke="gray"></path></g><path id="node_outline38" fill="none" stroke="none" d="M118.5,479.5h75a5,5,0,0,1,5,5v12a5,5,0,0,1,-5,5h-75a5,5,0,0,1,-5,-5v-12a5,5,0,0,1,5,-5z" stroke-width="3"></path><g id="node_text38" fill="black"><text id="kity_text_321" text-rendering="inherit" font-size="12" dy=".8em" y="482.7000000476837" x="123.5">MySQL分区</text></g></g><g id="minder_node39"><g id="node_expander38" style="cursor: pointer;" display="none"><path id="kity_path_332" fill="white" stroke="gray" d="M210.5,542.5A6,6,0,1,1,198.5,542.5A6,6,0,1,1,210.5,542.5"></path><path id="kity_path_333" fill="none" stroke="gray"></path></g><path id="node_outline39" fill="none" stroke="none" d="M118.5,531.5h75a5,5,0,0,1,5,5v12a5,5,0,0,1,-5,5h-75a5,5,0,0,1,-5,-5v-12a5,5,0,0,1,5,-5z" stroke-width="3"></path><g id="node_text39" fill="black"><text id="kity_text_329" text-rendering="inherit" font-size="12" dy=".8em" y="534.7000000476837" x="123.5">MySQL分库</text></g></g><g id="minder_node40"><g id="node_expander39" style="cursor: pointer;" display="none"><path id="kity_path_340" fill="white" stroke="gray" d="M210.5,594.5A6,6,0,1,1,198.5,594.5A6,6,0,1,1,210.5,594.5"></path><path id="kity_path_341" fill="none" stroke="gray"></path></g><path id="node_outline40" fill="none" stroke="none" d="M117.5,583.5h76a5,5,0,0,1,5,5v12a5,5,0,0,1,-5,5h-76a5,5,0,0,1,-5,-5v-12a5,5,0,0,1,5,-5z" stroke-width="3"></path><g id="node_text40" fill="black"><text id="kity_text_337" text-rendering="inherit" font-size="12" dy=".8em" y="586.7000000476837" x="122.5">MySQL分表</text></g></g><g id="minder_node41"><g id="node_expander40" style="cursor: pointer;"><path id="kity_path_348" fill="white" stroke="gray" d="M384.5,708.5A6,6,0,1,1,372.5,708.5A6,6,0,1,1,384.5,708.5"></path><path id="kity_path_349" fill="none" stroke="gray" d="M374,708.5L383,708.5"></path></g><path id="node_outline41" fill="rgb(239, 238, 246)" stroke="rgb(123, 115, 191)" d="M278.5,695.5h90a3,3,0,0,1,3,3v20a3,3,0,0,1,-3,3h-90a3,3,0,0,1,-3,-3v-20a3,3,0,0,1,3,-3z" stroke-width="1"></path><g id="node_text41" fill="black"><text id="kity_text_345" text-rendering="inherit" font-size="14" dy=".8em" y="699.4000000953674" x="295.5">主从复制</text></g></g><g id="minder_node42"><g id="node_expander41" style="cursor: pointer;" display="none"><path id="kity_path_356" fill="white" stroke="gray" d="M247.5,656.5A6,6,0,1,1,235.5,656.5A6,6,0,1,1,247.5,656.5"></path><path id="kity_path_357" fill="none" stroke="gray"></path></g><path id="node_outline42" fill="none" stroke="none" d="M146.5,645.5h84a5,5,0,0,1,5,5v12a5,5,0,0,1,-5,5h-84a5,5,0,0,1,-5,-5v-12a5,5,0,0,1,5,-5z" stroke-width="3"></path><g id="node_text42" fill="black"><text id="kity_text_353" text-rendering="inherit" font-size="12" dy=".8em" y="648.7000000476837" x="151.5">复制基本原理</text></g></g><g id="minder_node43"><g id="node_expander42" style="cursor: pointer;" display="none"><path id="kity_path_364" fill="white" stroke="gray" d="M247.5,708.5A6,6,0,1,1,235.5,708.5A6,6,0,1,1,247.5,708.5"></path><path id="kity_path_365" fill="none" stroke="gray"></path></g><path id="node_outline43" fill="none" stroke="none" d="M135.5,697.5h95a5,5,0,0,1,5,5v12a5,5,0,0,1,-5,5h-95a5,5,0,0,1,-5,-5v-12a5,5,0,0,1,5,-5z" stroke-width="3"></path><g id="node_text43" fill="black"><text id="kity_text_361" text-rendering="inherit" font-size="12" dy=".8em" y="700.7000000476837" x="140.5">复制的基本原则</text></g></g><g id="minder_node44"><g id="node_expander43" style="cursor: pointer;" display="none"><path id="kity_path_372" fill="white" stroke="gray" d="M247.5,760.5A6,6,0,1,1,235.5,760.5A6,6,0,1,1,247.5,760.5"></path><path id="kity_path_373" fill="none" stroke="gray"></path></g><path id="node_outline44" fill="none" stroke="none" d="M134.5,749.5h96a5,5,0,0,1,5,5v12a5,5,0,0,1,-5,5h-96a5,5,0,0,1,-5,-5v-12a5,5,0,0,1,5,-5z" stroke-width="3"></path><g id="node_text44" fill="black"><text id="kity_text_369" text-rendering="inherit" font-size="12" dy=".8em" y="752.7000000476837" x="139.5">复制的最大问题</text></g></g><g id="minder_node46"><g id="node_expander45" style="cursor: pointer;"><path id="kity_path_388" fill="white" stroke="gray" d="M384.5,848.5A6,6,0,1,1,372.5,848.5A6,6,0,1,1,384.5,848.5"></path><path id="kity_path_389" fill="none" stroke="gray" d="M374,848.5L383,848.5"></path></g><path id="node_outline46" fill="rgb(239, 238, 246)" stroke="rgb(123, 115, 191)" d="M276.5,835.5h92a3,3,0,0,1,3,3v20a3,3,0,0,1,-3,3h-92a3,3,0,0,1,-3,-3v-20a3,3,0,0,1,3,-3z" stroke-width="1"></path><g id="node_text46" fill="black"><text id="kity_text_385" text-rendering="inherit" font-size="14" dy=".8em" y="839.4000000953674" x="293.5">其他问题</text></g></g><g id="minder_node47"><g id="node_expander46" style="cursor: pointer;" display="none"><path id="kity_path_396" fill="white" stroke="gray" d="M245.5,822.5A6,6,0,1,1,233.5,822.5A6,6,0,1,1,245.5,822.5"></path><path id="kity_path_397" fill="none" stroke="gray"></path></g><path id="node_outline47" fill="none" stroke="none" d="M169.5,811.5h59a5,5,0,0,1,5,5v12a5,5,0,0,1,-5,5h-59a5,5,0,0,1,-5,-5v-12a5,5,0,0,1,5,-5z" stroke-width="3"></path><g id="node_text47" fill="black"><text id="kity_text_393" text-rendering="inherit" font-size="12" dy=".8em" y="814.7000000476837" x="174.5">三个范式</text></g></g><g id="minder_node48"><g id="node_expander47" style="cursor: pointer;" display="none"><path id="kity_path_404" fill="white" stroke="gray" d="M245.5,874.5A6,6,0,1,1,233.5,874.5A6,6,0,1,1,245.5,874.5"></path><path id="kity_path_405" fill="none" stroke="gray"></path></g><path id="node_outline48" fill="none" stroke="none" d="M25.5,863.5h203a5,5,0,0,1,5,5v12a5,5,0,0,1,-5,5h-203a5,5,0,0,1,-5,-5v-12a5,5,0,0,1,5,-5z" stroke-width="3"></path><g id="node_text48" fill="black"><text id="kity_text_401" text-rendering="inherit" font-size="12" dy=".8em" y="866.7000000476837" x="30.5">百分级别数据及以上的数据如何删除</text></g></g><g id="kity_g_12" display="none"><path id="kity_path_13" fill="none" stroke="rgb(71, 66, 112)" d="M717.5,498.5h63a3,3,0,0,1,3,3v20a3,3,0,0,1,-3,3h-63a3,3,0,0,1,-3,-3v-20a3,3,0,0,1,3,-3z" stroke-width="5"></path></g><g id="minder_node9"><g id="node_expander7" style="cursor: pointer;" display="none"><path id="kity_path_114" fill="white" stroke="gray" d="M823.5,227.5A6,6,0,1,1,811.5,227.5A6,6,0,1,1,823.5,227.5"></path><path id="kity_path_115" fill="none" stroke="gray"></path></g><path id="node_outline8" fill="none" stroke="none" d="M828.5,216.5h60a5,5,0,0,1,5,5v12a5,5,0,0,1,-5,5h-60a5,5,0,0,1,-5,-5v-12a5,5,0,0,1,5,-5z"></path><g id="node_text8" fill="black"><text id="kity_text_69" text-rendering="inherit" font-size="12" dy=".8em" y="219.70000004768372" x="833.5">基本语法</text></g></g><g id="minder_node10"><g id="node_expander8" style="cursor: pointer;" display="none"><path id="kity_path_117" fill="white" stroke="gray" d="M823.5,279.5A6,6,0,1,1,811.5,279.5A6,6,0,1,1,823.5,279.5"></path><path id="kity_path_118" fill="none" stroke="gray"></path></g><path id="node_outline9" fill="none" stroke="none" d="M828.5,268.5h36a5,5,0,0,1,5,5v12a5,5,0,0,1,-5,5h-36a5,5,0,0,1,-5,-5v-12a5,5,0,0,1,5,-5z"></path><g id="node_text9" fill="black"><text id="kity_text_71" text-rendering="inherit" font-size="12" dy=".8em" y="271.7000000476837" x="833.5">优势</text></g></g><g id="minder_node11"><g id="node_expander9" style="cursor: pointer;" display="none"><path id="kity_path_120" fill="white" stroke="gray" d="M823.5,331.5A6,6,0,1,1,811.5,331.5A6,6,0,1,1,823.5,331.5"></path><path id="kity_path_121" fill="none" stroke="gray"></path></g><path id="node_outline10" fill="none" stroke="none" d="M828.5,320.5h36a5,5,0,0,1,5,5v12a5,5,0,0,1,-5,5h-36a5,5,0,0,1,-5,-5v-12a5,5,0,0,1,5,-5z"></path><g id="node_text10" fill="black"><text id="kity_text_73" text-rendering="inherit" font-size="12" dy=".8em" y="323.7000000476837" x="833.5">劣势</text></g></g><g id="minder_node12"><g id="node_expander10" style="cursor: pointer;" display="none"><path id="kity_path_123" fill="white" stroke="gray" d="M823.5,383.5A6,6,0,1,1,811.5,383.5A6,6,0,1,1,823.5,383.5"></path><path id="kity_path_124" fill="none" stroke="gray"></path></g><path id="node_outline11" fill="none" stroke="none" d="M828.5,372.5h100a5,5,0,0,1,5,5v12a5,5,0,0,1,-5,5h-100a5,5,0,0,1,-5,-5v-12a5,5,0,0,1,5,-5z"></path><g id="node_text11" fill="black"><text id="kity_text_75" text-rendering="inherit" font-size="12" dy=".8em" y="375.7000000476837" x="833.5">MySQL索引分类</text></g></g><g id="minder_node13"><g id="node_expander11" style="cursor: pointer;" display="none"><path id="kity_path_126" fill="white" stroke="gray" d="M823.5,435.5A6,6,0,1,1,811.5,435.5A6,6,0,1,1,823.5,435.5"></path><path id="kity_path_127" fill="none" stroke="gray"></path></g><path id="node_outline12" fill="none" stroke="none" d="M828.5,424.5h99a5,5,0,0,1,5,5v12a5,5,0,0,1,-5,5h-99a5,5,0,0,1,-5,-5v-12a5,5,0,0,1,5,-5z"></path><g id="node_text12" fill="black"><text id="kity_text_77" text-rendering="inherit" font-size="12" dy=".8em" y="427.7000000476837" x="833.5">MySQL索引结构</text></g></g><g id="minder_node14"><g id="node_expander12" style="cursor: pointer;" display="none"><path id="kity_path_129" fill="white" stroke="gray" d="M823.5,487.5A6,6,0,1,1,811.5,487.5A6,6,0,1,1,823.5,487.5"></path><path id="kity_path_130" fill="none" stroke="gray"></path></g><path id="node_outline13" fill="none" stroke="none" d="M828.5,476.5h106a5,5,0,0,1,5,5v12a5,5,0,0,1,-5,5h-106a5,5,0,0,1,-5,-5v-12a5,5,0,0,1,5,-5z" stroke-width="3"></path><g id="node_text13" fill="black"><text id="kity_text_79" text-rendering="inherit" font-size="12" dy=".8em" y="479.7000000476837" x="833.5">哪些情况需要索引</text></g></g><g id="minder_node15"><g id="node_expander14" style="cursor: pointer;" display="none"><path id="kity_path_140" fill="white" stroke="gray" d="M823.5,539.5A6,6,0,1,1,811.5,539.5A6,6,0,1,1,823.5,539.5"></path><path id="kity_path_141" fill="none" stroke="gray"></path></g><path id="node_outline15" fill="none" stroke="none" d="M828.5,528.5h118a5,5,0,0,1,5,5v12a5,5,0,0,1,-5,5h-118a5,5,0,0,1,-5,-5v-12a5,5,0,0,1,5,-5z" stroke-width="3"></path><g id="node_text15" fill="black"><text id="kity_text_137" text-rendering="inherit" font-size="12" dy=".8em" y="531.7000000476837" x="833.5">哪些情况不需要索引</text></g></g><g id="minder_node16"><g id="node_expander15" style="cursor: pointer;" display="none"><path id="kity_path_148" fill="white" stroke="gray" d="M823.5,591.5A6,6,0,1,1,811.5,591.5A6,6,0,1,1,823.5,591.5"></path><path id="kity_path_149" fill="none" stroke="gray"></path></g><path id="node_outline16" fill="none" stroke="none" d="M828.5,580.5h99a5,5,0,0,1,5,5v12a5,5,0,0,1,-5,5h-99a5,5,0,0,1,-5,-5v-12a5,5,0,0,1,5,-5z" stroke-width="3"></path><g id="node_text16" fill="black"><text id="kity_text_145" text-rendering="inherit" font-size="12" dy=".8em" y="583.7000000476837" x="833.5">MySQL高效索引</text></g></g><g id="minder_node18"><g id="node_expander17" style="cursor: pointer;" display="none"><path id="kity_path_164" fill="white" stroke="gray" d="M869.5,635.5A6,6,0,1,1,857.5,635.5A6,6,0,1,1,869.5,635.5"></path><path id="kity_path_165" fill="none" stroke="gray"></path></g><path id="node_outline18" fill="none" stroke="none" d="M874.5,624.5h82a5,5,0,0,1,5,5v12a5,5,0,0,1,-5,5h-82a5,5,0,0,1,-5,-5v-12a5,5,0,0,1,5,-5z" stroke-width="3"></path><g id="node_text18" fill="black"><text id="kity_text_161" text-rendering="inherit" font-size="12" dy=".8em" y="627.7000000476837" x="879.5">SQL执行顺序</text></g></g><g id="minder_node19"><g id="node_expander18" style="cursor: pointer;" display="none"><path id="kity_path_172" fill="white" stroke="gray" d="M869.5,687.5A6,6,0,1,1,857.5,687.5A6,6,0,1,1,869.5,687.5"></path><path id="kity_path_173" fill="none" stroke="gray"></path></g><path id="node_outline19" fill="none" stroke="none" d="M874.5,676.5h46a5,5,0,0,1,5,5v12a5,5,0,0,1,-5,5h-46a5,5,0,0,1,-5,-5v-12a5,5,0,0,1,5,-5z" stroke-width="3"></path><g id="node_text19" fill="black"><text id="kity_text_169" text-rendering="inherit" font-size="12" dy=".8em" y="679.7000000476837" x="879.5">Join图</text></g></g><g id="minder_node21"><g id="node_expander20" style="cursor: pointer;" display="none"><path id="kity_path_188" fill="white" stroke="gray" d="M855.5,714.5A6,6,0,1,1,843.5,714.5A6,6,0,1,1,855.5,714.5"></path><path id="kity_path_189" fill="none" stroke="gray"></path></g><path id="node_outline21" fill="none" stroke="none" d="M860.5,703.5h40a5,5,0,0,1,5,5v12a5,5,0,0,1,-5,5h-40a5,5,0,0,1,-5,-5v-12a5,5,0,0,1,5,-5z" stroke-width="3"></path><g id="node_text21" fill="black"><text id="kity_text_185" text-rendering="inherit" font-size="12" dy=".8em" y="706.7000000476837" x="865.5">ACID</text></g></g><g id="minder_node22"><g id="node_expander21" style="cursor: pointer;" display="none"><path id="kity_path_196" fill="white" stroke="gray" d="M855.5,766.5A6,6,0,1,1,843.5,766.5A6,6,0,1,1,855.5,766.5"></path><path id="kity_path_197" fill="none" stroke="gray"></path></g><path id="node_outline22" fill="none" stroke="none" d="M860.5,755.5h82a5,5,0,0,1,5,5v12a5,5,0,0,1,-5,5h-82a5,5,0,0,1,-5,-5v-12a5,5,0,0,1,5,-5z" stroke-width="3"></path><g id="node_text22" fill="black"><text id="kity_text_193" text-rendering="inherit" font-size="12" dy=".8em" y="758.7000000476837" x="865.5">事务隔离级别</text></g></g><g id="minder_node23"><g id="node_expander22" style="cursor: pointer;" display="none"><path id="kity_path_204" fill="white" stroke="gray" d="M855.5,818.5A6,6,0,1,1,843.5,818.5A6,6,0,1,1,855.5,818.5"></path><path id="kity_path_205" fill="none" stroke="gray"></path></g><path id="node_outline23" fill="none" stroke="none" d="M860.5,807.5h130a5,5,0,0,1,5,5v12a5,5,0,0,1,-5,5h-130a5,5,0,0,1,-5,-5v-12a5,5,0,0,1,5,-5z" stroke-width="3"></path><g id="node_text23" fill="black"><text id="kity_text_201" text-rendering="inherit" font-size="12" dy=".8em" y="810.7000000476837" x="865.5">MVCC多版本并发控制</text></g></g><g id="minder_node24"><g id="node_expander23" style="cursor: pointer;" display="none"><path id="kity_path_212" fill="white" stroke="gray" d="M855.5,870.5A6,6,0,1,1,843.5,870.5A6,6,0,1,1,855.5,870.5"></path><path id="kity_path_213" fill="none" stroke="gray"></path></g><path id="node_outline24" fill="none" stroke="none" d="M860.5,859.5h59a5,5,0,0,1,5,5v12a5,5,0,0,1,-5,5h-59a5,5,0,0,1,-5,-5v-12a5,5,0,0,1,5,-5z" stroke-width="3"></path><g id="node_text24" fill="black"><text id="kity_text_209" text-rendering="inherit" font-size="12" dy=".8em" y="862.7000000476837" x="865.5">事务日志</text></g></g><g id="minder_node26"><g id="node_expander25" style="cursor: pointer;" display="none"><path id="kity_path_228" fill="white" stroke="gray" d="M855.5,922.5A6,6,0,1,1,843.5,922.5A6,6,0,1,1,855.5,922.5"></path><path id="kity_path_229" fill="none" stroke="gray"></path></g><path id="node_outline26" fill="none" stroke="none" d="M860.5,911.5h160a5,5,0,0,1,5,5v12a5,5,0,0,1,-5,5h-160a5,5,0,0,1,-5,-5v-12a5,5,0,0,1,5,-5z" stroke-width="3"></path><g id="node_text26" fill="black"><text id="kity_text_225" text-rendering="inherit" font-size="12" dy=".8em" y="914.7000000476837" x="865.5">MySQL对分布式事务的支持</text></g></g><g id="minder_node25"><g id="node_expander24" style="cursor: pointer;" display="none"><path id="kity_path_220" fill="white" stroke="gray" d="M855.5,974.5A6,6,0,1,1,843.5,974.5A6,6,0,1,1,855.5,974.5"></path><path id="kity_path_221" fill="none" stroke="gray"></path></g><path id="node_outline25" fill="none" stroke="none" d="M860.5,963.5h59a5,5,0,0,1,5,5v12a5,5,0,0,1,-5,5h-59a5,5,0,0,1,-5,-5v-12a5,5,0,0,1,5,-5z" stroke-width="3"></path><g id="node_text25" fill="black"><text id="kity_text_217" text-rendering="inherit" font-size="12" dy=".8em" y="966.7000000476837" x="865.5">事务实现</text></g></g></g></g></svg>